<svg width="24" height="25" viewBox="0 0 24 25" fill="none" xmlns="http://www.w3.org/2000/svg">
<g clip-path="url(#clip0_136_59)">
<path opacity="0.2" d="M12 24.5C18.6274 24.5 24 19.1274 24 12.5C24 5.87258 18.6274 0.5 12 0.5C5.37258 0.5 0 5.87258 0 12.5C0 19.1274 5.37258 24.5 12 24.5Z" fill="#F3BA2F"/>
<path fill-rule="evenodd" clip-rule="evenodd" d="M9.49125 11.4685L12.0012 8.95969L14.5122 11.4706L15.9719 10.01L12.0012 6.03845L8.03058 10.009L9.49125 11.4685ZM5.53845 12.5002L6.99858 11.0401L8.45872 12.5002L6.99858 13.9603L5.53845 12.5002ZM12.0012 16.0413L9.49125 13.5314L8.02854 14.99L8.03058 14.992L12.0012 18.9615L15.9719 14.99L15.9729 14.989L14.5122 13.5304L12.0012 16.0413ZM15.5413 12.5005L17.0014 11.0405L18.4615 12.5005L17.0014 13.9607L15.5413 12.5005ZM12.0012 11.0174L13.4823 12.4994H13.4834L13.4823 12.5005L12.0012 13.9825L10.5201 12.5026L10.5181 12.4994L10.5201 12.4974L10.7794 12.2382L10.906 12.1127L12.0012 11.0174Z" fill="#F3BA2F"/>
</g>
<defs>
<clipPath id="clip0_136_59">
<rect width="24" height="24" fill="white" transform="translate(0 0.5)"/>
</clipPath>
</defs>
</svg>
