<svg width="1440" height="1003" viewBox="0 0 1440 1003" fill="none" xmlns="http://www.w3.org/2000/svg">
<path d="M45.5833 -180.917H-86V-49.3334M45.5833 -180.917V-49.3334M45.5833 -180.917L177.167 -180.917M45.5833 -49.3334H-86M45.5833 -49.3334V82.25M45.5833 -49.3334L177.167 -49.3333M-86 -49.3334L-86 82.25M45.5833 82.25H-86M45.5833 82.25V213.833M45.5833 82.25H177.167M-86 82.25V213.833M45.5833 213.833H-86M45.5833 213.833V345.417M45.5833 213.833H177.167M-86 213.833V345.417M45.5833 345.417H-86M45.5833 345.417V477M45.5833 345.417H177.167M-86 345.417V477M45.5833 477H-86M45.5833 477V608.583M45.5833 477H177.167M-86 477V608.583M45.5833 608.583H-86M45.5833 608.583V740.167M45.5833 608.583H177.167M-86 608.583V740.167M45.5833 740.167H-86M45.5833 740.167V871.75M45.5833 740.167H177.167M-86 740.167V871.75M45.5833 871.75H-86M45.5833 871.75V1003.33M45.5833 871.75H177.167M-86 871.75V1003.33M45.5833 1003.33H-86M45.5833 1003.33V1134.92M45.5833 1003.33H177.167M-86 1003.33V1134.92M45.5833 1134.92H-86M45.5833 1134.92V1266.5M45.5833 1134.92H177.167M-86 1134.92V1266.5H45.5833M45.5833 1266.5H177.167M177.167 -180.917V-49.3333M177.167 -180.917H308.75M177.167 -49.3333V82.25M177.167 -49.3333H308.75M177.167 82.25V213.833M177.167 82.25H308.75M177.167 213.833V345.417M177.167 213.833H308.75M177.167 345.417V477M177.167 345.417H308.75M177.167 477V608.583M177.167 477H308.75M177.167 608.583V740.167M177.167 608.583H308.75M177.167 740.167V871.75M177.167 740.167H308.75M177.167 871.75V1003.33M177.167 871.75H308.75M177.167 1003.33V1134.92M177.167 1003.33H308.75M177.167 1134.92V1266.5M177.167 1134.92H308.75M177.167 1266.5H308.75M308.75 -180.917V-49.3333M308.75 -180.917H440.333M308.75 -49.3333V82.25M308.75 -49.3333H440.333M308.75 82.25V213.833M308.75 82.25H440.333M308.75 213.833V345.417M308.75 213.833H440.333M308.75 345.417V477M308.75 345.417H440.333M308.75 477V608.583M308.75 477H440.333M308.75 608.583V740.167M308.75 608.583H440.333M308.75 740.167V871.75M308.75 740.167H440.333M308.75 871.75V1003.33M308.75 871.75H440.333M308.75 1003.33V1134.92M308.75 1003.33H440.333M308.75 1134.92V1266.5M308.75 1134.92H440.333M308.75 1266.5H440.333M440.333 -180.917V-49.3333M440.333 -180.917H571.917M440.333 -49.3333V82.25M440.333 -49.3333H571.917M440.333 82.25V213.833M440.333 82.25H571.917M440.333 213.833V345.417M440.333 213.833H571.917M440.333 345.417V477M440.333 345.417H571.917M440.333 477V608.583M440.333 477H571.917M440.333 608.583V740.167M440.333 608.583H571.917M440.333 740.167V871.75M440.333 740.167H571.917M440.333 871.75V1003.33M440.333 871.75H571.917M440.333 1003.33V1134.92M440.333 1003.33H571.917M440.333 1134.92V1266.5M440.333 1134.92H571.917M440.333 1266.5H571.917M571.917 -180.917V-49.3333M571.917 -180.917H703.5M571.917 -49.3333V82.25M571.917 -49.3333H703.5M571.917 82.25V213.833M571.917 82.25H703.5M571.917 213.833V345.417M571.917 213.833H703.5M571.917 345.417V477M571.917 345.417H703.5M571.917 477V608.583M571.917 477H703.5M571.917 608.583V740.167M571.917 608.583H703.5M571.917 740.167V871.75M571.917 740.167H703.5M571.917 871.75V1003.33M571.917 871.75H703.5M571.917 1003.33V1134.92M571.917 1003.33H703.5M571.917 1134.92V1266.5M571.917 1134.92H703.5M571.917 1266.5H703.5M703.5 -180.917V-49.3333M703.5 -180.917H835.083M703.5 -49.3333V82.25M703.5 -49.3333H835.083M703.5 82.25V213.833M703.5 82.25H835.083M703.5 213.833V345.417M703.5 213.833H835.083M703.5 345.417V477M703.5 345.417H835.083M703.5 477V608.583M703.5 477H835.083M703.5 608.583V740.167M703.5 608.583H835.083M703.5 740.167V871.75M703.5 740.167H835.083M703.5 871.75V1003.33M703.5 871.75H835.083M703.5 1003.33V1134.92M703.5 1003.33H835.083M703.5 1134.92V1266.5M703.5 1134.92H835.083M703.5 1266.5H835.083M835.083 -180.917V-49.3333M835.083 -180.917H966.667M835.083 -49.3333V82.25M835.083 -49.3333H966.667M835.083 82.25V213.833M835.083 82.25H966.667M835.083 213.833V345.417M835.083 213.833H966.667M835.083 345.417V477M835.083 345.417H966.667M835.083 477V608.583M835.083 477H966.667M835.083 608.583V740.167M835.083 608.583H966.667M835.083 740.167V871.75M835.083 740.167H966.667M835.083 871.75V1003.33M835.083 871.75H966.667M835.083 1003.33V1134.92M835.083 1003.33H966.667M835.083 1134.92V1266.5M835.083 1134.92H966.667M835.083 1266.5H966.667M966.667 -180.917V-49.3333M966.667 -180.917H1098.25M966.667 -49.3333V82.25M966.667 -49.3333H1098.25M966.667 82.25V213.833M966.667 82.25H1098.25M966.667 213.833V345.417M966.667 213.833H1098.25M966.667 345.417V477M966.667 345.417H1098.25M966.667 477V608.583M966.667 477H1098.25M966.667 608.583V740.167M966.667 608.583H1098.25M966.667 740.167V871.75M966.667 740.167H1098.25M966.667 871.75V1003.33M966.667 871.75H1098.25M966.667 1003.33V1134.92M966.667 1003.33H1098.25M966.667 1134.92V1266.5M966.667 1134.92H1098.25M966.667 1266.5H1098.25M1098.25 -180.917V-49.3333M1098.25 -180.917H1229.83M1098.25 -49.3333V82.25M1098.25 -49.3333H1229.83M1098.25 82.25V213.833M1098.25 82.25H1229.83M1098.25 213.833V345.417M1098.25 213.833H1229.83M1098.25 345.417V477M1098.25 345.417H1229.83M1098.25 477V608.583M1098.25 477H1229.83M1098.25 608.583V740.167M1098.25 608.583H1229.83M1098.25 740.167V871.75M1098.25 740.167H1229.83M1098.25 871.75V1003.33M1098.25 871.75H1229.83M1098.25 1003.33V1134.92M1098.25 1003.33H1229.83M1098.25 1134.92V1266.5M1098.25 1134.92H1229.83M1098.25 1266.5H1229.83M1229.83 -180.917V-49.3333M1229.83 -180.917H1361.42M1229.83 -49.3333V82.25M1229.83 -49.3333H1361.42M1229.83 82.25V213.833M1229.83 82.25H1361.42M1229.83 213.833V345.417M1229.83 213.833H1361.42M1229.83 345.417V477M1229.83 345.417H1361.42M1229.83 477V608.583M1229.83 477H1361.42M1229.83 608.583V740.167M1229.83 608.583H1361.42M1229.83 740.167V871.75M1229.83 740.167H1361.42M1229.83 871.75V1003.33M1229.83 871.75H1361.42M1229.83 1003.33V1134.92M1229.83 1003.33H1361.42M1229.83 1134.92V1266.5M1229.83 1134.92H1361.42M1229.83 1266.5H1361.42M1361.42 -180.917V-49.3333M1361.42 -180.917H1493V-49.3333M1361.42 -49.3333V82.25M1361.42 -49.3333H1493M1361.42 82.25V213.833M1361.42 82.25H1493M1361.42 213.833V345.417M1361.42 213.833H1493M1361.42 345.417V477M1361.42 345.417H1493M1361.42 477V608.583M1361.42 477H1493M1361.42 608.583V740.167M1361.42 608.583H1493M1361.42 740.167V871.75M1361.42 740.167H1493M1361.42 871.75V1003.33M1361.42 871.75H1493M1361.42 1003.33V1134.92M1361.42 1003.33H1493M1361.42 1134.92V1266.5M1361.42 1134.92H1493M1361.42 1266.5H1493V1134.92M1493 -49.3333V82.25M1493 82.25V213.833M1493 213.833V345.417M1493 345.417V477M1493 477V608.583M1493 608.583V740.167M1493 740.167V871.75M1493 871.75V1003.33M1493 1003.33V1134.92" stroke="url(#paint0_radial_13_268)"/>
<defs>
<radialGradient id="paint0_radial_13_268" cx="0" cy="0" r="1" gradientUnits="userSpaceOnUse" gradientTransform="translate(704 361) rotate(90) scale(478 521.455)">
<stop stop-color="#51547E"/>
<stop offset="1" stop-color="#51547E" stop-opacity="0"/>
</radialGradient>
</defs>
</svg>
