<svg width="404" height="54" viewBox="0 0 404 54" fill="none" xmlns="http://www.w3.org/2000/svg">
<path d="M3 44.2411C28.2644 20.5234 47.5303 46.1715 72.0633 45.6139C79.0902 45.4542 86.8893 39.7904 94.1814 38.5971C105.651 36.7203 109.781 42.5057 118.74 48.2071C132.583 57.0159 143.153 36.4476 158.858 39.5886C174.868 42.7906 190.9 57.8536 206.069 44.2411C225.671 26.6491 239.679 58.8382 257.398 48.2071C276.784 36.5752 279.267 30.405 300.795 40.6564C321.311 50.4258 326.609 34.5 345.5 34.5C352.305 34.5 366.412 42.7002 373.5 44.2411C386.061 46.9717 395.616 11.6924 400.326 3.05562" stroke="#E46E00" stroke-width="6" stroke-linecap="round"/>
</svg>
