<svg width="226" height="33" viewBox="0 0 226 33" fill="none" xmlns="http://www.w3.org/2000/svg">
<g clip-path="url(#clip0_139_930)">
<path d="M36.4235 17.2642C36.4235 18.6991 36.4542 19.8577 36.4081 21.0163C36.3851 21.6148 36.5769 22.0138 37.0833 22.3284C37.5284 22.6046 37.9427 22.9345 38.3494 23.2645C39.0553 23.8323 39.8226 24.0701 40.6513 23.6251C41.503 23.1724 41.6181 22.3591 41.6104 21.4843C41.5874 18.8832 41.6104 16.2744 41.6104 13.6733C41.6104 13.5198 41.6027 13.374 41.6104 13.2205C41.6948 11.9392 41.2574 10.9263 40.0835 10.3048C38.9249 9.6833 37.9197 10.0593 36.9299 10.7652C34.3364 12.6297 31.7123 14.4636 29.0958 16.3051C27.7683 17.2412 26.4409 18.1696 25.0444 19.1518C24.1007 18.4919 23.1799 17.8474 22.2668 17.2028C19.1746 15.0314 16.0824 12.8676 13.0055 10.6808C12.0618 10.0132 11.0873 9.83676 10.0284 10.3355C8.94652 10.8419 8.50149 11.778 8.49381 12.906C8.47079 15.8524 8.49381 18.7911 8.47847 21.7376C8.47847 22.5509 8.74702 23.3335 9.42225 23.6711C10.1282 24.0164 10.9645 23.8783 11.6474 23.3105C12.2536 22.8041 12.9135 22.3591 13.6501 21.8143V17.3563C14.0414 17.5788 14.3023 17.7016 14.5325 17.8627C16.1821 18.9906 17.8472 20.1109 19.4739 21.2695C21.2156 22.5125 21.3307 24.5996 19.6964 25.973C17.3561 27.9373 14.9852 29.8786 12.5758 31.7585C10.2509 33.5846 6.65997 33.0782 4.49619 30.6766C2.60864 28.5895 1.48838 26.1035 0.843852 23.3949C-0.813512 16.4048 -0.122944 9.72167 3.64449 3.47586C5.28651 0.759624 8.42476 -0.590821 11.3021 0.245534C12.0771 0.46805 12.829 0.913083 13.4813 1.39648C14.8087 2.3863 16.0901 3.45284 17.3561 4.53473C21.7911 8.32518 27.8604 8.44028 32.4335 4.79561C33.853 3.66768 35.2188 2.47837 36.6613 1.38114C39.4389 -0.736608 42.8688 -0.314594 45.2781 2.22516C47.7411 4.8263 48.8 8.04896 49.4982 11.3944C50.5187 16.2437 50.2118 21.0547 48.4547 25.7352C47.6721 27.8299 46.5365 29.6791 44.9788 31.3058C43.4366 32.9171 39.7766 33.4312 37.9197 32.027C35.2648 30.0244 32.7021 27.9143 30.17 25.7659C28.8426 24.6379 28.9346 22.5662 30.3541 21.5074C32.2494 20.0879 34.2367 18.7911 36.4235 17.2719V17.2642Z" fill="white"/>
<path d="M89.6968 28.5972H84.0725V14.8242C83.9881 14.8088 83.9114 14.7935 83.827 14.7781C82.3921 18.1926 80.9573 21.6071 79.5071 25.0446H74.182C72.7472 21.7222 71.3047 18.3845 69.8622 15.0467C69.8008 15.0544 69.7471 15.0697 69.6857 15.0774V28.5512H63.9463V4.48868H71.719C73.3764 8.86995 75.0721 13.3356 76.8446 18.0238C78.6017 13.374 80.2897 8.92366 81.9855 4.44264H89.6968V28.5972Z" fill="white"/>
<path d="M179.241 28.6049V4.57309C179.363 4.49636 179.425 4.4273 179.486 4.4273C183.937 4.47334 188.402 4.02831 192.83 4.76491C197.134 5.4785 199.881 8.14102 200.541 12.2307C200.748 13.5198 200.648 14.8626 200.648 16.1823C200.648 17.6862 200.763 19.2208 200.541 20.694C199.919 24.8067 197.065 27.523 192.668 28.2749C191.264 28.5128 189.822 28.6202 188.395 28.6509C185.678 28.7046 182.954 28.6662 180.231 28.6662C179.939 28.6662 179.64 28.6356 179.248 28.6049H179.241ZM185.464 23.134C186.829 23.134 188.103 23.134 189.384 23.134C189.76 23.134 190.144 23.134 190.512 23.0803C192.814 22.712 194.426 21.469 194.31 18.7528C194.241 17.1721 194.31 15.5838 194.295 14.0032C194.287 11.9315 193.359 10.6885 191.333 10.159C189.415 9.6526 187.458 9.92115 185.464 9.90581V23.1417V23.134Z" fill="white"/>
<path d="M164.286 28.6125H158.247V20.4945H148.817V28.5895H142.664V4.458H148.779V14.9086H158.155V4.47335H164.286V28.6202V28.6125Z" fill="white"/>
<path d="M138.674 6.36088C137.807 7.92617 137.001 9.36869 136.234 10.7575C134.761 10.2895 133.395 9.76769 131.983 9.4224C130.349 9.03108 128.676 9.07712 127.041 9.49913C126.612 9.61423 126.174 9.79071 125.806 10.0362C124.763 10.7498 124.717 12.1463 125.829 12.7448C126.804 13.2666 127.932 13.5351 129.021 13.796C131.07 14.2871 133.18 14.571 135.198 15.1695C138.282 16.0826 139.794 17.9855 139.947 20.9242C140.101 23.8936 138.82 26.0881 136.149 27.4386C133.395 28.835 130.433 29.0729 127.425 28.9041C123.619 28.6893 120.65 27.7915 118.287 26.2723C119.223 24.8451 120.166 23.4102 121.126 21.9524C124.034 23.5484 127.08 24.1238 130.272 23.7709C131.147 23.6711 132.075 23.4256 132.842 22.9959C134.246 22.2209 134.162 20.4945 132.666 19.9344C131.338 19.4433 129.888 19.2899 128.492 19.0136C126.942 18.699 125.353 18.5072 123.834 18.0929C120.972 17.3179 119.215 15.3613 118.97 12.9059C118.655 9.76769 119.652 7.2663 122.514 5.67799C124.517 4.56541 126.719 4.24314 128.952 4.14339C132.336 3.99761 135.528 4.78025 138.689 6.36088H138.674Z" fill="white"/>
<path d="M117.427 28.6356H110.851C110.383 27.4923 109.907 26.3183 109.424 25.1367H100.83C100.37 26.2876 99.9096 27.4309 99.4339 28.6049H92.8428C96.2956 20.4945 99.7101 12.4686 103.132 4.43497H107.122C110.529 12.4379 113.943 20.4638 117.427 28.6356ZM107.291 19.6121C106.57 17.7629 105.902 16.0442 105.235 14.3331C105.166 14.3331 105.089 14.3331 105.02 14.3331C104.345 16.0595 103.677 17.786 102.971 19.6121H107.291Z" fill="white"/>
<path d="M226 28.6049H219.409C218.949 27.4616 218.496 26.3183 218.02 25.1444H209.396C208.958 26.2493 208.498 27.3925 208.022 28.5895H201.431C204.884 20.4715 208.298 12.4532 211.713 4.43497H215.703C219.11 12.4379 222.517 20.4255 225.992 28.6049H226ZM211.552 19.5891H215.872C215.15 17.7476 214.475 16.0058 213.716 14.0722C212.956 16.0058 212.281 17.7476 211.552 19.5891Z" fill="white"/>
<path d="M174.921 28.5742H168.683V4.51938H174.921V28.5742Z" fill="white"/>
</g>
<defs>
<clipPath id="clip0_139_930">
<rect width="226" height="32.8711" fill="white"/>
</clipPath>
</defs>
</svg>
