<svg width="970" height="148" viewBox="0 0 970 148" fill="none" xmlns="http://www.w3.org/2000/svg">
<path d="M154.134 146.476H120.469V64.0351C119.964 63.9433 119.504 63.8514 118.999 63.7595C110.411 84.1975 101.822 104.635 93.1418 125.211H61.2679C52.6793 105.324 44.0449 85.3457 35.4105 65.367C35.043 65.413 34.7215 65.5048 34.3541 65.5507V146.2H0V2.17021H46.525C56.4454 28.395 66.5955 55.1251 77.2048 83.1871C87.7223 55.3547 97.8265 28.7165 107.977 1.89464H154.134V146.476Z" fill="white" fill-opacity="0.04"/>
<path d="M690.114 146.521V2.67497C690.849 2.21569 691.216 1.80234 691.584 1.80234C718.222 2.07791 744.952 -0.58591 771.453 3.82317C797.218 8.09447 813.66 24.0315 817.61 48.511C818.85 56.2269 818.253 64.2643 818.253 72.1639C818.253 81.1658 818.942 90.3514 817.61 99.1695C813.89 123.787 796.805 140.045 770.488 144.546C762.083 145.97 753.449 146.613 744.906 146.797C728.648 147.118 712.343 146.889 696.039 146.889C694.294 146.889 692.502 146.705 690.16 146.521H690.114ZM727.362 113.775C735.537 113.775 743.161 113.775 750.831 113.775C753.081 113.775 755.378 113.775 757.582 113.453C771.361 111.249 781.006 103.808 780.317 87.5498C779.903 78.0886 780.317 68.5815 780.225 59.1204C780.179 46.7198 774.622 39.2795 762.497 36.1105C751.015 33.0793 739.303 34.6867 727.362 34.5949V113.821V113.775Z" fill="white" fill-opacity="0.04"/>
<path d="M600.601 146.568H564.455V97.976H508.01V146.43H471.176V1.98669H507.78V64.5405H563.904V2.07855H600.601V146.614V146.568Z" fill="white" fill-opacity="0.04"/>
<path d="M447.294 13.3763C442.104 22.7456 437.281 31.3801 432.689 39.693C423.87 36.8914 415.695 33.7683 407.244 31.7016C397.462 29.3592 387.45 29.6348 377.667 32.1608C375.095 32.8498 372.477 33.9061 370.273 35.3758C364.026 39.6471 363.751 48.006 370.41 51.5883C376.243 54.7114 382.995 56.3189 389.516 57.8805C401.779 60.8199 414.409 62.5192 426.488 66.1016C444.951 71.567 453.999 82.9571 454.918 100.548C455.836 118.322 448.166 131.457 432.183 139.54C415.695 147.899 397.967 149.323 379.963 148.313C357.183 147.027 339.409 141.653 325.263 132.559C330.866 124.017 336.516 115.428 342.256 106.702C359.663 116.255 377.897 119.699 397.003 117.587C402.238 116.99 407.796 115.52 412.388 112.948C420.793 108.309 420.288 97.9755 411.332 94.6228C403.387 91.6834 394.706 90.7649 386.347 89.1115C377.07 87.2284 367.563 86.0802 358.469 83.6001C341.338 78.9614 330.82 67.2498 329.351 52.5528C327.468 33.7683 333.438 18.7958 350.569 9.28873C362.557 2.62918 375.738 0.700212 389.103 0.103149C409.357 -0.769481 428.463 3.91517 447.385 13.3763H447.294Z" fill="white" fill-opacity="0.04"/>
<path d="M320.118 146.705H280.758C277.956 139.862 275.109 132.835 272.215 125.762H220.776C218.02 132.651 215.264 139.495 212.417 146.522H172.965C193.632 97.9757 214.07 49.9351 234.554 1.8486H258.437C278.829 49.7514 299.267 97.792 320.118 146.705ZM259.447 92.694C255.13 81.6254 251.134 71.3375 247.138 61.0956C246.725 61.0956 246.266 61.0956 245.852 61.0956C241.811 71.4294 237.815 81.7632 233.59 92.694H259.447Z" fill="white" fill-opacity="0.04"/>
<path d="M970 146.522H930.548C927.792 139.678 925.082 132.835 922.235 125.808H870.612C867.994 132.422 865.238 139.265 862.391 146.43H822.938C843.606 97.8379 864.044 49.8433 884.482 1.8486H908.364C928.756 49.7514 949.148 97.5624 969.954 146.522H970ZM883.517 92.5562H909.375C905.058 81.5335 901.016 71.1079 896.469 59.5341C891.922 71.1079 887.881 81.5335 883.517 92.5562Z" fill="white" fill-opacity="0.04"/>
<path d="M664.256 146.338H626.917V2.35423H664.256V146.338Z" fill="white" fill-opacity="0.04"/>
</svg>
