<svg width="50" height="48" viewBox="0 0 50 48" fill="none" xmlns="http://www.w3.org/2000/svg">
<path d="M47.0859 1.42859L28.3145 15.3143L31.8145 7.12859L47.0859 1.42859Z" fill="#E17726" stroke="#E17726" stroke-width="0.25" stroke-linecap="round" stroke-linejoin="round"/>
<path d="M3.79992 1.42859L22.3999 15.4286L19.0713 7.14287L3.79992 1.42859ZM40.3285 33.6143L35.3285 41.2429L46.0285 44.1857L49.0856 33.7857L40.3285 33.6143ZM1.81421 33.7857L4.85707 44.1857L15.5285 41.2429L10.5571 33.6143L1.81421 33.7857Z" fill="#E27625" stroke="#E27625" stroke-width="0.25" stroke-linecap="round" stroke-linejoin="round"/>
<path d="M14.957 20.7284L11.9856 25.2141L22.557 25.6998L22.2142 14.3141L14.957 20.7427V20.7284ZM35.9285 20.7427L28.557 14.1713L28.3142 25.6998L38.8856 25.2141L35.9285 20.7427ZM15.5285 41.2427L21.9428 38.1569L16.4285 33.8712L15.5285 41.2427ZM28.957 38.1427L35.3285 41.2427L34.4713 33.857L28.957 38.1427Z" fill="#E27625" stroke="#E27625" stroke-width="0.25" stroke-linecap="round" stroke-linejoin="round"/>
<path d="M35.3288 41.2428L28.9574 38.1571L29.4717 42.3L29.4145 44.0571L35.3288 41.2428ZM15.5288 41.2428L21.4717 44.0571L21.4288 42.3L21.9431 38.1571L15.5288 41.2428Z" fill="#D5BFB2" stroke="#D5BFB2" stroke-width="0.25" stroke-linecap="round" stroke-linejoin="round"/>
<path d="M21.5714 31.1143L16.2856 29.5715L20.0285 27.8572L21.5856 31.1143H21.5714ZM29.2999 31.1143L30.8714 27.8429L34.6285 29.5572L29.2999 31.1286V31.1143Z" fill="#233447" stroke="#233447" stroke-width="0.25" stroke-linecap="round" stroke-linejoin="round"/>
<path d="M15.5283 41.2427L16.4569 33.6141L10.5569 33.7855L15.5283 41.2427ZM34.4283 33.6141L35.3283 41.2427L40.3283 33.7855L34.4283 33.6141ZM38.8998 25.2141L28.3283 25.6998L29.2998 31.1284L30.8712 27.8427L34.6283 29.557L38.8998 25.2141ZM16.2855 29.5713L20.0283 27.857L21.5855 31.1141L22.5712 25.6855L11.9997 25.2141L16.2855 29.5713Z" fill="#CC6228" stroke="#CC6228" stroke-width="0.25" stroke-linecap="round" stroke-linejoin="round"/>
<path d="M11.9998 25.2141L16.4283 33.857L16.2855 29.5713L11.9998 25.2141ZM34.6283 29.5713L34.4569 33.857L38.8855 25.2141L34.6283 29.5713ZM22.5712 25.6998L21.5712 31.1284L22.8283 37.5284L23.114 29.0855L22.5712 25.6998ZM28.314 25.6998L27.7998 29.0713L28.0569 37.5284L29.2998 31.1141L28.314 25.6855V25.6998Z" fill="#E27525" stroke="#E27525" stroke-width="0.25" stroke-linecap="round" stroke-linejoin="round"/>
<path d="M29.2998 31.1143L28.057 37.5286L28.957 38.157L34.457 33.8713L34.6284 29.5714L29.2998 31.1143ZM16.2855 29.5714L16.4284 33.8571L21.9427 38.1428L22.8284 37.5286L21.5855 31.1143L16.2712 29.5714H16.2855Z" fill="#F5841F" stroke="#F5841F" stroke-width="0.25" stroke-linecap="round" stroke-linejoin="round"/>
<path d="M29.4288 44.0573L29.4717 42.3002L28.986 41.9002H21.9002L21.4288 42.3002L21.4717 44.0573L15.5288 41.243L17.6145 42.9573L21.8288 45.8573H29.0431L33.2717 42.943L35.3288 41.243L29.4145 44.0573H29.4288Z" fill="#C0AC9D" stroke="#C0AC9D" stroke-width="0.25" stroke-linecap="round" stroke-linejoin="round"/>
<path d="M28.957 38.1429L28.057 37.5286H22.8285L21.9428 38.1571L21.4285 42.3L21.8999 41.9H28.9856L29.4713 42.3L28.957 38.1571V38.1429Z" fill="#161616" stroke="#161616" stroke-width="0.25" stroke-linecap="round" stroke-linejoin="round"/>
<path d="M47.8856 16.2143L49.457 8.57145L47.0856 1.42859L28.9428 14.8572L35.9285 20.7286L45.7856 23.6L47.957 21.0714L47.0142 20.3857L48.5142 19.0143L47.3713 18.1286L48.8713 16.9857L47.8713 16.2143H47.8856ZM1.42847 8.55716L3.02847 16.2143L1.9999 16.9714L3.52847 18.1143L2.38561 19.0143L3.87132 20.3857L2.92847 21.0714L5.0999 23.6L14.957 20.7429L21.9428 14.8429L3.7999 1.42859L1.42847 8.55716Z" fill="#763E1A" stroke="#763E1A" stroke-width="0.25" stroke-linecap="round" stroke-linejoin="round"/>
<path d="M45.7856 23.6L35.9285 20.7428L38.8999 25.2143L34.4713 33.8571L40.3285 33.7857H49.0856L45.7856 23.6ZM14.957 20.7286L5.09992 23.6L1.81421 33.7857H10.5714L16.4285 33.8571L11.9999 25.2143L14.9713 20.7286H14.957ZM28.3142 25.7L28.957 14.8428L31.8142 7.12854H19.0713L21.9285 14.8428L22.5713 25.7L22.8142 29.1V37.5286H28.057L28.0856 29.1L28.3142 25.7Z" fill="#F5841F" stroke="#F5841F" stroke-width="0.25" stroke-linecap="round" stroke-linejoin="round"/>
</svg>
